<svg width="8" height="14" viewBox="0 0 8 14" fill="none" xmlns="http://www.w3.org/2000/svg">
<path fill-rule="evenodd" clip-rule="evenodd" d="M7.54023 6.29004L1.88023 0.640037C1.69246 0.450724 1.43686 0.344238 1.17023 0.344238C0.903589 0.344238 0.647993 0.450724 0.460226 0.640037C0.0725027 1.03007 0.0725027 1.66 0.460226 2.05004L5.41023 7.05004L0.460226 12C0.0725027 12.3901 0.0725027 13.02 0.460226 13.41C0.647298 13.6009 0.90298 13.7089 1.17023 13.71C1.43747 13.7089 1.69315 13.6009 1.88023 13.41L7.54023 7.76004C7.74544 7.57072 7.86216 7.30424 7.86216 7.02504C7.86216 6.74584 7.74544 6.47935 7.54023 6.29004Z" fill="white"/>
</svg>
