<svg width="8" height="14" viewBox="0 0 8 14" fill="none" xmlns="http://www.w3.org/2000/svg">
<path fill-rule="evenodd" clip-rule="evenodd" d="M0.459774 6.29004L6.11977 0.640037C6.30754 0.450724 6.56314 0.344238 6.82977 0.344238C7.09641 0.344238 7.35201 0.450724 7.53977 0.640037C7.9275 1.03007 7.9275 1.66 7.53977 2.05004L2.58977 7.05004L7.53977 12C7.9275 12.3901 7.9275 13.02 7.53977 13.41C7.3527 13.6009 7.09702 13.7089 6.82977 13.71C6.56253 13.7089 6.30685 13.6009 6.11977 13.41L0.459774 7.76004C0.254562 7.57072 0.13784 7.30424 0.13784 7.02504C0.13784 6.74584 0.254562 6.47935 0.459774 6.29004Z" fill="white"/>
</svg>
