<svg width="24" height="24" viewBox="0 0 24 24" fill="none" xmlns="http://www.w3.org/2000/svg">
<path d="M19.7752 7.55868C19.7271 6.98094 19.4863 6.45135 19.1012 6.0662C18.716 5.68104 18.2105 5.44032 17.6087 5.44032H16.3329V4.333C16.3329 3.12939 15.8514 2.04614 15.0571 1.27583C14.2627 0.481444 13.1794 0 11.9999 0C10.7963 0 9.71302 0.481444 8.94271 1.27583C8.14833 2.04614 7.66688 3.12939 7.66688 4.333V5.44032H6.39106C5.78925 5.44032 5.28374 5.68104 4.89858 6.0662C4.51342 6.45135 4.2727 6.98094 4.22456 7.55868L2.94873 21.8094C2.94873 21.8816 2.94873 21.9539 2.94873 21.9779C2.94873 22.5075 3.16538 23.013 3.55054 23.3741C3.91162 23.7111 4.39306 23.9519 4.89858 24H4.92265C4.99487 24 5.06709 24 5.11523 24H18.8845C18.9327 24 19.0049 24 19.0771 24C19.6067 23.9519 20.0881 23.7111 20.4492 23.3741C20.8344 23.013 21.051 22.5075 21.051 21.9539C21.051 21.9057 21.051 21.8576 21.051 21.7854L19.7752 7.55868ZM8.99086 4.333C8.99086 3.49047 9.32787 2.74423 9.88153 2.19057C10.4352 1.63691 11.1814 1.2999 12.024 1.2999C12.8665 1.2999 13.6127 1.63691 14.1664 2.19057C14.72 2.74423 15.0571 3.49047 15.0571 4.333V5.44032H8.99086V4.333ZM19.703 21.9779C19.703 22.1705 19.6308 22.339 19.4863 22.4594C19.3419 22.6038 19.1253 22.7001 18.9327 22.7242C18.9327 22.7242 18.9086 22.7242 18.8605 22.7242H5.11523C5.06709 22.7242 5.04301 22.7242 5.04301 22.7242H5.01894C4.80229 22.7001 4.60971 22.6038 4.46528 22.4594C4.32085 22.339 4.24863 22.1705 4.24863 21.9779V21.9057L5.52446 7.67904C5.54853 7.41424 5.66889 7.17352 5.8374 7.00502C5.98183 6.86058 6.17441 6.76429 6.39106 6.76429H7.66688V9.7011C7.66688 10.0622 7.95575 10.3511 8.31683 10.3511C8.67792 10.3511 8.96678 10.0622 8.96678 9.7011V6.76429H14.9848V9.7011C14.9848 10.0622 15.2737 10.3511 15.6348 10.3511C15.9959 10.3511 16.2847 10.0622 16.2847 9.7011V6.76429H17.5606C17.7772 6.76429 17.9698 6.86058 18.1142 7.00502C18.2827 7.17352 18.4031 7.41424 18.4272 7.67904L19.703 21.9298V21.9779Z" fill="white"/>
</svg>
