<svg width="470" height="174" viewBox="0 0 470 174" fill="none" xmlns="http://www.w3.org/2000/svg">
<g clip-path="url(#clip0_138_32)">
<path d="M436.99 148.869L436.547 149.621L436.824 149.068L436.99 148.869Z" fill="black"/>
<path d="M23.2235 23.1884V38.6473H84.0471C86.3596 38.7853 88.5401 39.7692 90.1721 41.4109C91.8041 43.0527 92.7732 45.2372 92.8941 47.5472L82.9412 57.4188L68.5647 71.7735V62.9398H9.4C7.00065 62.9413 4.69134 62.0277 2.94414 60.3858C1.19693 58.7439 0.143791 56.4976 0 54.1062C0 53.9185 0 53.7418 0 53.5541V9.38577C0 9.19805 0 9.02138 0 8.83366C0.143791 6.44226 1.19693 4.19599 2.94414 2.55405C4.69134 0.912116 7.00065 -0.001489 9.4 1.82168e-06H92.8941V23.1884H23.2235Z" fill="#EB0000"/>
<path d="M190.212 9.93787V91.6493C190.212 91.837 190.212 92.0136 190.212 92.2014C190.213 94.5971 189.298 96.9029 187.654 98.6475C186.009 100.392 183.76 101.444 181.365 101.587H107.271C104.382 101.45 101.648 100.243 99.6029 98.2011C97.558 96.1592 96.3489 93.4295 96.2118 90.5451L107.846 78.3988L120.541 65.1483V77.2946H166.988V23.1884H120.541V59.6272L81.8353 98.2745L78.4071 100.229L77.9647 100.483C76.7698 101.126 75.4492 101.503 74.0941 101.587H8.84706C6.5453 101.451 4.37356 100.476 2.74311 98.8482C1.11265 97.2202 0.136676 95.0517 0 92.7535C0 92.5658 0 92.3891 0 92.2014V70.6693H23.2235V77.2946H69.2504L97.3176 49.6894V9.38577C97.3176 9.19805 97.3176 9.02138 97.3176 8.83366C97.4543 6.53539 98.4303 4.36694 100.061 2.73895C101.691 1.11097 103.863 0.136469 106.165 0L181.365 0C183.758 0.143459 186.006 1.19345 187.65 2.93566C189.294 4.67786 190.21 6.98092 190.212 9.37473C190.212 9.57348 190.212 9.75016 190.212 9.93787Z" fill="#EB0000"/>
<path d="M275.365 0V22.6363C275.365 22.824 275.365 23.0007 275.365 23.1884C275.284 24.4767 274.94 25.735 274.355 26.8857C273.769 28.0365 272.953 29.0554 271.959 29.8799L218.965 82.8156V101.587H194.635V76.7425C194.635 76.5547 194.635 76.3781 194.635 76.1904C194.752 74.1589 195.529 72.2208 196.847 70.6693L197.842 69.6645L251.035 16.2319V0H275.365Z" fill="#EB0000"/>
<path d="M470 91.6493C470 91.837 470 92.0136 470 92.2014C469.997 94.6897 469.006 97.0753 467.244 98.8349C465.481 100.594 463.092 101.584 460.6 101.587H388.718C386.555 101.588 384.435 100.984 382.598 99.8446C380.761 98.705 379.28 97.0748 378.322 95.1386C377.519 93.5422 377.102 91.7796 377.106 89.9929C377.103 89.39 377.151 88.788 377.25 88.1931L386.904 78.5533L400.329 65.1483V77.2945H446.776V23.1884H400.329V59.6272L363.105 97.7555L361.314 99.5995C359.667 100.89 357.634 101.59 355.541 101.587H289.188C286.696 101.584 284.307 100.594 282.545 98.8349C280.782 97.0753 279.791 94.6897 279.788 92.2014C279.788 92.0136 279.788 91.837 279.788 91.6493V9.93787C279.788 9.75016 279.788 9.57348 279.788 9.38577C279.787 6.99005 280.702 4.68424 282.346 2.93968C283.991 1.19512 286.24 0.143573 288.635 0L372.682 0V23.1884H303.012V38.6473H363.282C365.682 38.6431 367.993 39.5558 369.741 41.1983C371.489 42.8408 372.541 45.0886 372.682 47.4809L362.729 57.4188L349.459 71.7735V62.9398H303.012V77.2945H349.459L377.106 49.6894V9.38577C377.106 9.19805 377.106 9.02138 377.106 8.83366C377.25 6.44416 378.301 4.19949 380.046 2.55784C381.791 0.916183 384.097 0.00132329 386.495 0L461.153 0C463.455 0.136469 465.626 1.11097 467.257 2.73895C468.887 4.36694 469.863 6.53539 470 8.83366C470 9.02138 470 9.19805 470 9.38577V91.6493Z" fill="#EB0000"/>
<path d="M363.105 97.7555C362.598 98.4511 361.995 99.0717 361.314 99.5988L363.105 97.7555Z" fill="#EB0000"/>
<path d="M5.78381 119.255L5.67322 119.376L5.37463 119.255H5.78381Z" fill="white"/>
<path d="M51.9765 113.733V119.254H5.37459L5.67318 119.376L5.52941 142.443L0 147.964V117.046C0 116.167 0.349537 115.325 0.971716 114.704C1.5939 114.082 2.43775 113.733 3.31765 113.733H51.9765Z" fill="white"/>
<path d="M51.9765 140.234V146.86H14.3765L5.52941 155.693V173.361H0V152.381L12.1647 140.234H51.9765Z" fill="white"/>
<path d="M60.8236 113.733H56.4V173.361H60.8236V113.733Z" fill="white"/>
<path d="M71.0198 119.255C70.9475 119.347 70.8659 119.432 70.7765 119.509V119.255H71.0198Z" fill="white"/>
<path d="M117.224 113.733V119.254H70.7765V142.443L65.2471 147.964V117.046C65.2471 116.167 65.5966 115.325 66.2188 114.704C66.841 114.082 67.6848 113.733 68.5647 113.733H117.224Z" fill="white"/>
<path d="M117.224 140.234V145.755H80.7294L70.7765 155.693V173.361H65.2471V152.381L78.5177 140.234H117.224Z" fill="white"/>
<path d="M150.4 126.984V173.361H143.765V128.088L134.475 119.254H120.541V113.733H138.235L150.4 126.984Z" fill="white"/>
<path d="M173.624 113.733V119.254H147.082L141.553 113.733H173.624Z" fill="white"/>
<path d="M201.271 145.755L196.847 151.276L176.941 131.401V113.733H182.471V126.984L201.271 145.755Z" fill="white"/>
<path d="M230.023 113.733V131.401L205.694 155.693V173.361H200.165V151.276L224.494 126.984V113.733H230.023Z" fill="white"/>
<path d="M286.424 123.671H250.217L250.029 123.351C249.643 123.51 249.238 123.617 248.824 123.671H250.217L250.328 123.859L243.294 130.915V138.026H242.918C243.051 138.114 243.172 138.214 243.294 138.313V138.026H280.341C280.525 138.015 280.71 138.015 280.894 138.026C282.321 138.144 283.66 138.764 284.672 139.775C285.685 140.785 286.305 142.122 286.424 143.547C286.435 143.731 286.435 143.915 286.424 144.099V158.454C286.435 158.638 286.435 158.822 286.424 159.006C286.336 159.788 286.064 160.538 285.63 161.195C285.195 161.851 284.611 162.395 283.924 162.782L275.984 170.589C275.62 171.349 275.067 172.002 274.377 172.487C273.688 172.973 272.886 173.273 272.047 173.361C271.863 173.372 271.678 173.372 271.494 173.361H233.341V162.319H269.537L276.471 155.461V149.068H276.847C276.714 148.98 276.592 148.88 276.471 148.781V149.068H239.976C239.792 149.079 239.608 149.079 239.424 149.068C237.907 149.069 236.445 148.502 235.325 147.48C234.206 146.459 233.51 145.055 233.374 143.547C233.363 143.363 233.363 143.179 233.374 142.995V129.192C233.363 129.009 233.363 128.824 233.374 128.64C233.373 127.862 233.556 127.094 233.907 126.4C234.259 125.705 234.77 125.103 235.398 124.643L244.466 115.544L244.544 115.456L245.019 114.981C245.912 114.179 247.07 113.735 248.271 113.733C248.455 113.722 248.639 113.722 248.824 113.733H286.424V123.671Z" fill="white"/>
<path d="M250.217 123.672H248.823C249.236 123.629 249.641 123.532 250.029 123.384L250.217 123.672Z" fill="white"/>
<path d="M242.918 138.026H243.294V138.314C243.172 138.214 243.051 138.114 242.918 138.026Z" fill="white"/>
<path d="M276.471 148.781C276.592 148.881 276.714 148.98 276.847 149.069H276.471V148.781Z" fill="white"/>
<path d="M280.894 138.026C280.71 138.015 280.525 138.015 280.341 138.026H280.894Z" fill="white"/>
<path d="M276.471 148.781C276.592 148.881 276.714 148.98 276.847 149.069H276.471V148.781Z" fill="white"/>
<path d="M286.423 143.547V144.099C286.435 143.915 286.435 143.731 286.423 143.547Z" fill="white"/>
<path d="M286.423 159.005C286.435 158.822 286.435 158.638 286.423 158.454V159.005Z" fill="white"/>
<path d="M233.341 142.995C233.33 143.179 233.33 143.363 233.341 143.546V142.995Z" fill="white"/>
<path d="M243.294 138.026V138.314C243.172 138.214 243.051 138.114 242.918 138.026H243.294Z" fill="white"/>
<path d="M250.217 123.672H248.823C249.236 123.629 249.641 123.532 250.029 123.384L250.217 123.672Z" fill="white"/>
<path d="M299.694 113.733H289.741V173.361H299.694V113.733Z" fill="white"/>
<path d="M357.2 164.527V165.079C357.211 164.895 357.211 164.711 357.2 164.527Z" fill="white"/>
<path d="M356.094 113.733V123.119C356.105 123.303 356.105 123.487 356.094 123.671C355.953 124.972 355.301 126.163 354.28 126.984L314.071 166.735V173.361H303.012V165.631C303 165.447 303 165.263 303.012 165.079C303.01 164.294 303.195 163.52 303.553 162.821C303.911 162.122 304.43 161.518 305.069 161.06L346.141 120.116V113.733H356.094Z" fill="white"/>
<path d="M356.094 123.119V123.671C356.106 123.487 356.106 123.303 356.094 123.119Z" fill="white"/>
<path d="M328.447 133.609L320.706 141.339L305.069 126.034C304.501 125.633 304.024 125.117 303.67 124.52C303.315 123.922 303.091 123.257 303.012 122.567C303 122.383 303 122.199 303.012 122.015V113.733H314.071V119.254L328.447 133.609Z" fill="white"/>
<path d="M303.012 122.567V122.015C303 122.199 303 122.383 303.012 122.567Z" fill="white"/>
<path d="M357.2 165.079V173.361H346.141V167.84L331.765 153.485L339.506 145.755L355.088 161.016C355.672 161.415 356.163 161.935 356.528 162.541C356.892 163.147 357.122 163.824 357.2 164.527C357.211 164.711 357.211 164.895 357.2 165.079Z" fill="white"/>
<path d="M391.482 125.88V173.361H381.529V130.849L373.81 123.671H360.518V113.733H379.318L391.482 125.88Z" fill="white"/>
<path d="M413.6 113.733V123.671H392.588L382.635 113.733H413.6Z" fill="white"/>
<path d="M442.906 142.995L436.547 149.62L436.989 148.869L436.824 149.068L435.718 151.276L435.143 150.713L434.888 150.459L418.731 134.713C418.159 134.246 417.698 133.656 417.385 132.987C417.071 132.318 416.911 131.587 416.918 130.849C416.906 130.665 416.906 130.48 416.918 130.297V113.733H426.871V126.984L441.358 141.449L441.756 141.847L442.353 142.443L442.906 142.995Z" fill="white"/>
<path d="M470 130.297C470.011 130.48 470.011 130.665 470 130.849C470.002 131.709 469.778 132.555 469.351 133.303C468.925 134.051 468.31 134.674 467.567 135.111L448.988 153.485V173.361H437.929V151.276L460.047 128.464V113.733H470V130.297Z" fill="white"/>
<path d="M437.564 148.56L436.503 149.72L435.165 149.62L437.376 148.516L437.564 148.56Z" fill="white"/>
</g>
<defs>
<clipPath id="clip0_138_32">
<rect width="470" height="173.361" fill="white"/>
</clipPath>
</defs>
</svg>
