<svg width="16" height="16" viewBox="0 0 16 16" fill="none" xmlns="http://www.w3.org/2000/svg">
<path fill-rule="evenodd" clip-rule="evenodd" d="M14.4733 13.5267L11.9999 11.0734C13.9934 8.58783 13.6965 4.97758 11.3236 2.85116C8.95079 0.724745 5.32971 0.823831 3.07671 3.07683C0.823709 5.32983 0.724623 8.95091 2.85104 11.3237C4.97746 13.6966 8.58771 13.9935 11.0733 12.0001L13.5266 14.4534C13.6518 14.5796 13.8222 14.6506 13.9999 14.6506C14.1777 14.6506 14.3481 14.5796 14.4733 14.4534C14.723 14.195 14.723 13.7851 14.4733 13.5267ZM7.33326 12.0001C4.75593 12.0001 2.66659 9.91076 2.66659 7.33343C2.66659 4.7561 4.75593 2.66676 7.33326 2.66676C9.91059 2.66676 11.9999 4.7561 11.9999 7.33343C11.9999 8.57111 11.5083 9.75809 10.6331 10.6333C9.75792 11.5084 8.57094 12.0001 7.33326 12.0001Z" fill="white"/>
</svg>
